<svg xmlns="http://www.w3.org/2000/svg" version="1.1"
  xmlns:xlink="http://www.w3.org/1999/xlink"
  xmlns:svgjs="http://svgjs.dev/svgjs" viewBox="0 0 2400 800" opacity="0.62">
  <g fill="#278fd9ff" transform="matrix(1,0,0,1,9.9305419921875,151.23810577392578)">
    <path d="M-10,10C27.797619047619044,17.5,97.91666666666666,60.79166666666667,171.42857142857142,46C244.94047619047618,31.208333333333332,271.42857142857144,-66.625,342.85714285714283,-61C414.2857142857142,-55.375,442.8571428571428,73.20833333333333,514.2857142857142,73C585.7142857142857,72.79166666666667,614.2857142857142,-54.083333333333336,685.7142857142857,-62C757.1428571428571,-69.91666666666667,785.7142857142857,23.333333333333332,857.1428571428571,35C928.5714285714286,46.66666666666667,957.142857142857,-10.375,1028.5714285714284,-6C1099.9999999999998,-1.625,1128.5714285714287,59.75,1200,56C1271.4285714285713,52.25,1300,-26.5,1371.4285714285713,-24C1442.8571428571427,-21.5,1471.4285714285713,63.625,1542.8571428571427,68C1614.285714285714,72.375,1642.857142857143,-8.625,1714.2857142857142,-3C1785.7142857142856,2.625,1814.2857142857142,92.91666666666667,1885.7142857142856,95C1957.1428571428569,97.08333333333333,1985.7142857142856,13.875,2057.142857142857,7C2128.5714285714284,0.125,2157.142857142857,61.791666666666664,2228.5714285714284,62C2300,62.208333333333336,2312.2023809523807,-62.41666666666667,2400,8C2487.7976190476193,78.41666666666667,3254.1666666666665,214.16666666666669,2650,400C2045.8333333333335,585.8333333333333,156.25,795.8333333333334,-500,900" transform="matrix(1,0,0,1,0,46)" opacity="0.05"></path>
    <path d="M-10,10C27.797619047619044,17.5,97.91666666666666,60.79166666666667,171.42857142857142,46C244.94047619047618,31.208333333333332,271.42857142857144,-66.625,342.85714285714283,-61C414.2857142857142,-55.375,442.8571428571428,73.20833333333333,514.2857142857142,73C585.7142857142857,72.79166666666667,614.2857142857142,-54.083333333333336,685.7142857142857,-62C757.1428571428571,-69.91666666666667,785.7142857142857,23.333333333333332,857.1428571428571,35C928.5714285714286,46.66666666666667,957.142857142857,-10.375,1028.5714285714284,-6C1099.9999999999998,-1.625,1128.5714285714287,59.75,1200,56C1271.4285714285713,52.25,1300,-26.5,1371.4285714285713,-24C1442.8571428571427,-21.5,1471.4285714285713,63.625,1542.8571428571427,68C1614.285714285714,72.375,1642.857142857143,-8.625,1714.2857142857142,-3C1785.7142857142856,2.625,1814.2857142857142,92.91666666666667,1885.7142857142856,95C1957.1428571428569,97.08333333333333,1985.7142857142856,13.875,2057.142857142857,7C2128.5714285714284,0.125,2157.142857142857,61.791666666666664,2228.5714285714284,62C2300,62.208333333333336,2312.2023809523807,-62.41666666666667,2400,8C2487.7976190476193,78.41666666666667,3254.1666666666665,214.16666666666669,2650,400C2045.8333333333335,585.8333333333333,156.25,795.8333333333334,-500,900" transform="matrix(1,0,0,1,0,92)" opacity="0.17"></path>
    <path d="M-10,10C27.797619047619044,17.5,97.91666666666666,60.79166666666667,171.42857142857142,46C244.94047619047618,31.208333333333332,271.42857142857144,-66.625,342.85714285714283,-61C414.2857142857142,-55.375,442.8571428571428,73.20833333333333,514.2857142857142,73C585.7142857142857,72.79166666666667,614.2857142857142,-54.083333333333336,685.7142857142857,-62C757.1428571428571,-69.91666666666667,785.7142857142857,23.333333333333332,857.1428571428571,35C928.5714285714286,46.66666666666667,957.142857142857,-10.375,1028.5714285714284,-6C1099.9999999999998,-1.625,1128.5714285714287,59.75,1200,56C1271.4285714285713,52.25,1300,-26.5,1371.4285714285713,-24C1442.8571428571427,-21.5,1471.4285714285713,63.625,1542.8571428571427,68C1614.285714285714,72.375,1642.857142857143,-8.625,1714.2857142857142,-3C1785.7142857142856,2.625,1814.2857142857142,92.91666666666667,1885.7142857142856,95C1957.1428571428569,97.08333333333333,1985.7142857142856,13.875,2057.142857142857,7C2128.5714285714284,0.125,2157.142857142857,61.791666666666664,2228.5714285714284,62C2300,62.208333333333336,2312.2023809523807,-62.41666666666667,2400,8C2487.7976190476193,78.41666666666667,3254.1666666666665,214.16666666666669,2650,400C2045.8333333333335,585.8333333333333,156.25,795.8333333333334,-500,900" transform="matrix(1,0,0,1,0,138)" opacity="0.29"></path>
    <path d="M-10,10C27.797619047619044,17.5,97.91666666666666,60.79166666666667,171.42857142857142,46C244.94047619047618,31.208333333333332,271.42857142857144,-66.625,342.85714285714283,-61C414.2857142857142,-55.375,442.8571428571428,73.20833333333333,514.2857142857142,73C585.7142857142857,72.79166666666667,614.2857142857142,-54.083333333333336,685.7142857142857,-62C757.1428571428571,-69.91666666666667,785.7142857142857,23.333333333333332,857.1428571428571,35C928.5714285714286,46.66666666666667,957.142857142857,-10.375,1028.5714285714284,-6C1099.9999999999998,-1.625,1128.5714285714287,59.75,1200,56C1271.4285714285713,52.25,1300,-26.5,1371.4285714285713,-24C1442.8571428571427,-21.5,1471.4285714285713,63.625,1542.8571428571427,68C1614.285714285714,72.375,1642.857142857143,-8.625,1714.2857142857142,-3C1785.7142857142856,2.625,1814.2857142857142,92.91666666666667,1885.7142857142856,95C1957.1428571428569,97.08333333333333,1985.7142857142856,13.875,2057.142857142857,7C2128.5714285714284,0.125,2157.142857142857,61.791666666666664,2228.5714285714284,62C2300,62.208333333333336,2312.2023809523807,-62.41666666666667,2400,8C2487.7976190476193,78.41666666666667,3254.1666666666665,214.16666666666669,2650,400C2045.8333333333335,585.8333333333333,156.25,795.8333333333334,-500,900" transform="matrix(1,0,0,1,0,184)" opacity="0.41"></path>
    <path d="M-10,10C27.797619047619044,17.5,97.91666666666666,60.79166666666667,171.42857142857142,46C244.94047619047618,31.208333333333332,271.42857142857144,-66.625,342.85714285714283,-61C414.2857142857142,-55.375,442.8571428571428,73.20833333333333,514.2857142857142,73C585.7142857142857,72.79166666666667,614.2857142857142,-54.083333333333336,685.7142857142857,-62C757.1428571428571,-69.91666666666667,785.7142857142857,23.333333333333332,857.1428571428571,35C928.5714285714286,46.66666666666667,957.142857142857,-10.375,1028.5714285714284,-6C1099.9999999999998,-1.625,1128.5714285714287,59.75,1200,56C1271.4285714285713,52.25,1300,-26.5,1371.4285714285713,-24C1442.8571428571427,-21.5,1471.4285714285713,63.625,1542.8571428571427,68C1614.285714285714,72.375,1642.857142857143,-8.625,1714.2857142857142,-3C1785.7142857142856,2.625,1814.2857142857142,92.91666666666667,1885.7142857142856,95C1957.1428571428569,97.08333333333333,1985.7142857142856,13.875,2057.142857142857,7C2128.5714285714284,0.125,2157.142857142857,61.791666666666664,2228.5714285714284,62C2300,62.208333333333336,2312.2023809523807,-62.41666666666667,2400,8C2487.7976190476193,78.41666666666667,3254.1666666666665,214.16666666666669,2650,400C2045.8333333333335,585.8333333333333,156.25,795.8333333333334,-500,900" transform="matrix(1,0,0,1,0,230)" opacity="0.53"></path>
    <path d="M-10,10C27.797619047619044,17.5,97.91666666666666,60.79166666666667,171.42857142857142,46C244.94047619047618,31.208333333333332,271.42857142857144,-66.625,342.85714285714283,-61C414.2857142857142,-55.375,442.8571428571428,73.20833333333333,514.2857142857142,73C585.7142857142857,72.79166666666667,614.2857142857142,-54.083333333333336,685.7142857142857,-62C757.1428571428571,-69.91666666666667,785.7142857142857,23.333333333333332,857.1428571428571,35C928.5714285714286,46.66666666666667,957.142857142857,-10.375,1028.5714285714284,-6C1099.9999999999998,-1.625,1128.5714285714287,59.75,1200,56C1271.4285714285713,52.25,1300,-26.5,1371.4285714285713,-24C1442.8571428571427,-21.5,1471.4285714285713,63.625,1542.8571428571427,68C1614.285714285714,72.375,1642.857142857143,-8.625,1714.2857142857142,-3C1785.7142857142856,2.625,1814.2857142857142,92.91666666666667,1885.7142857142856,95C1957.1428571428569,97.08333333333333,1985.7142857142856,13.875,2057.142857142857,7C2128.5714285714284,0.125,2157.142857142857,61.791666666666664,2228.5714285714284,62C2300,62.208333333333336,2312.2023809523807,-62.41666666666667,2400,8C2487.7976190476193,78.41666666666667,3254.1666666666665,214.16666666666669,2650,400C2045.8333333333335,585.8333333333333,156.25,795.8333333333334,-500,900" transform="matrix(1,0,0,1,0,276)" opacity="0.64"></path>
    <path d="M-10,10C27.797619047619044,17.5,97.91666666666666,60.79166666666667,171.42857142857142,46C244.94047619047618,31.208333333333332,271.42857142857144,-66.625,342.85714285714283,-61C414.2857142857142,-55.375,442.8571428571428,73.20833333333333,514.2857142857142,73C585.7142857142857,72.79166666666667,614.2857142857142,-54.083333333333336,685.7142857142857,-62C757.1428571428571,-69.91666666666667,785.7142857142857,23.333333333333332,857.1428571428571,35C928.5714285714286,46.66666666666667,957.142857142857,-10.375,1028.5714285714284,-6C1099.9999999999998,-1.625,1128.5714285714287,59.75,1200,56C1271.4285714285713,52.25,1300,-26.5,1371.4285714285713,-24C1442.8571428571427,-21.5,1471.4285714285713,63.625,1542.8571428571427,68C1614.285714285714,72.375,1642.857142857143,-8.625,1714.2857142857142,-3C1785.7142857142856,2.625,1814.2857142857142,92.91666666666667,1885.7142857142856,95C1957.1428571428569,97.08333333333333,1985.7142857142856,13.875,2057.142857142857,7C2128.5714285714284,0.125,2157.142857142857,61.791666666666664,2228.5714285714284,62C2300,62.208333333333336,2312.2023809523807,-62.41666666666667,2400,8C2487.7976190476193,78.41666666666667,3254.1666666666665,214.16666666666669,2650,400C2045.8333333333335,585.8333333333333,156.25,795.8333333333334,-500,900" transform="matrix(1,0,0,1,0,322)" opacity="0.76"></path>
    <path d="M-10,10C27.797619047619044,17.5,97.91666666666666,60.79166666666667,171.42857142857142,46C244.94047619047618,31.208333333333332,271.42857142857144,-66.625,342.85714285714283,-61C414.2857142857142,-55.375,442.8571428571428,73.20833333333333,514.2857142857142,73C585.7142857142857,72.79166666666667,614.2857142857142,-54.083333333333336,685.7142857142857,-62C757.1428571428571,-69.91666666666667,785.7142857142857,23.333333333333332,857.1428571428571,35C928.5714285714286,46.66666666666667,957.142857142857,-10.375,1028.5714285714284,-6C1099.9999999999998,-1.625,1128.5714285714287,59.75,1200,56C1271.4285714285713,52.25,1300,-26.5,1371.4285714285713,-24C1442.8571428571427,-21.5,1471.4285714285713,63.625,1542.8571428571427,68C1614.285714285714,72.375,1642.857142857143,-8.625,1714.2857142857142,-3C1785.7142857142856,2.625,1814.2857142857142,92.91666666666667,1885.7142857142856,95C1957.1428571428569,97.08333333333333,1985.7142857142856,13.875,2057.142857142857,7C2128.5714285714284,0.125,2157.142857142857,61.791666666666664,2228.5714285714284,62C2300,62.208333333333336,2312.2023809523807,-62.41666666666667,2400,8C2487.7976190476193,78.41666666666667,3254.1666666666665,214.16666666666669,2650,400C2045.8333333333335,585.8333333333333,156.25,795.8333333333334,-500,900" transform="matrix(1,0,0,1,0,368)" opacity="0.88"></path>
    <path d="M-10,10C27.797619047619044,17.5,97.91666666666666,60.79166666666667,171.42857142857142,46C244.94047619047618,31.208333333333332,271.42857142857144,-66.625,342.85714285714283,-61C414.2857142857142,-55.375,442.8571428571428,73.20833333333333,514.2857142857142,73C585.7142857142857,72.79166666666667,614.2857142857142,-54.083333333333336,685.7142857142857,-62C757.1428571428571,-69.91666666666667,785.7142857142857,23.333333333333332,857.1428571428571,35C928.5714285714286,46.66666666666667,957.142857142857,-10.375,1028.5714285714284,-6C1099.9999999999998,-1.625,1128.5714285714287,59.75,1200,56C1271.4285714285713,52.25,1300,-26.5,1371.4285714285713,-24C1442.8571428571427,-21.5,1471.4285714285713,63.625,1542.8571428571427,68C1614.285714285714,72.375,1642.857142857143,-8.625,1714.2857142857142,-3C1785.7142857142856,2.625,1814.2857142857142,92.91666666666667,1885.7142857142856,95C1957.1428571428569,97.08333333333333,1985.7142857142856,13.875,2057.142857142857,7C2128.5714285714284,0.125,2157.142857142857,61.791666666666664,2228.5714285714284,62C2300,62.208333333333336,2312.2023809523807,-62.41666666666667,2400,8C2487.7976190476193,78.41666666666667,3254.1666666666665,214.16666666666669,2650,400C2045.8333333333335,585.8333333333333,156.25,795.8333333333334,-500,900" transform="matrix(1,0,0,1,0,414)" opacity="1.00"></path>
  </g>
</svg>